<svg viewBox="0 0 1440 120" fill="none" xmlns="http://www.w3.org/2000/svg" class="w-full" data-fg-d3bl71="0.8:48.16876:/src/app/App.tsx:148:11:7894:385:e:svg"><path d="M0,64L60,69.3C120,75,240,85,360,80C480,75,600,53,720,48C840,43,960,53,1080,58.7C1200,64,1320,64,1380,64L1440,64L1440,120L1380,120C1320,120,1200,120,1080,120C960,120,840,120,720,120C600,120,480,120,360,120C240,120,120,120,60,120L0,120Z" fill="#ffe102" data-fg-d3bl72="0.8:48.16876:/src/app/App.tsx:149:13:8001:261:e:path"></path></svg>